<?xml version="1.0" encoding="utf-8"?>
<!-- Generator: Adobe Illustrator 24.3.0, SVG Export Plug-In . SVG Version: 6.00 Build 0)  -->
<svg version="1.1" id="Layer_1" xmlns="http://www.w3.org/2000/svg" xmlns:xlink="http://www.w3.org/1999/xlink" x="0px" y="0px"
	 viewBox="0 0 500 500" style="enable-background:new 0 0 500 500;" xml:space="preserve">
<style type="text/css">
	.st0{fill:#F5F5F5;}
	.st1{fill:#E0E0E0;}
	.st2{fill:#BA68C8;}
	.st3{opacity:0.1;enable-background:new    ;}
	.st4{opacity:0.3;enable-background:new    ;}
	.st5{opacity:0.5;fill:#FFFFFF;enable-background:new    ;}
	.st6{opacity:5.000000e-02;enable-background:new    ;}
	.st7{fill:#FAFAFA;}
	.st8{fill:#FFA8A7;}
	.st9{fill:#263238;}
	.st10{fill:#37474F;}
	.st11{fill:#455A64;}
	.st12{opacity:0.2;enable-background:new    ;}
	.st13{opacity:0.1;fill:#FFFFFF;enable-background:new    ;}
	.st14{fill:#F28F8F;}
	.st15{fill:#EBEBEB;}
	.st16{fill:#B16668;}
	.st17{opacity:0.45;fill:#FFFFFF;enable-background:new    ;}
	.st18{opacity:0.15;enable-background:new    ;}
	.st19{opacity:0.25;fill:#FFFFFF;enable-background:new    ;}
	.st20{fill:#FFFFFF;}
</style>
<g id="Floor">
	<path id="Floor_00000163068387093806148370000000218407711864289933_" class="st0" d="M89,264.6C0.1,315.9,0.1,399.1,89,450.5
		c88.9,51.3,233,51.3,321.9,0c88.9-51.3,88.9-134.5,0-185.9C322.1,213.3,177.9,213.3,89,264.6z"/>
</g>
<g id="Shadows">
	<path id="Shadow_00000158739242398221178560000010796731526200497037_" class="st1" d="M182.5,414.8c12.1,4.3,23.6,10,34.3,17
		c12,7.9,23,17.4,35.8,23.9c16.6,8.5,35.7,11.5,54.4,10.6c10.6-0.5,22-2.8,28.8-11c1.7-2.1,3.1-4.6,3.1-7.3c0-4-2.8-7.4-5.6-10.1
		c-15.4-14.6-36.9-20.5-57.6-25.2c-20.7-4.7-33.1-10.5-53.5-21c-8.7-4.5-17.3-9.4-26.1-13.6c-0.1,0-0.1-0.1-0.2-0.1
		c-4.5-2.1-7.6-5-13.7-7.5c-7.3-3-13.1-4.8-21-5.7c-7.9-0.9-15.2-1.2-22.5,1.8c-1.9,0.8-5.1,2.6-6.6,4.6c-1.4,1.9-2.2,4.3-2.1,6
		c0.1,3.5,1.6,6.9,3.7,9.8c2.1,2.8,4.8,5.2,7.5,7.4C153.3,403.8,168.1,409.7,182.5,414.8z"/>
	<path id="Shadow_00000047764577538064552210000000117369846566869666_" class="st1" d="M84.2,367.6l-48.5-28c-1.8-1-1.8-2.7,0-3.8
		l48.5-28c1.8-1,4.7-1,6.5,0l48.5,28c1.8,1,1.8,2.7,0,3.8l-48.5,28C89,368.6,86.1,368.6,84.2,367.6z"/>
	<path id="Shadow_00000116225642940022521950000006268623349683972999_" class="st1" d="M403.2,423.4l-48.5-28c-1.8-1-1.8-2.7,0-3.8
		l48.5-28c1.8-1,4.7-1,6.5,0l48.5,28c1.8,1,1.8,2.7,0,3.8l-48.5,28C407.9,424.4,405,424.4,403.2,423.4z"/>
</g>
<g id="Cones">
	<g id="Cone_3_">
		<g>
			<path class="st2" d="M133.5,331l-43.1-24.9c-0.8-0.5-1.8-0.7-2.9-0.7s-2.1,0.2-2.9,0.7L41.5,331c-0.8,0.5-1.2,1.1-1.2,1.7v3.1
				c0,0.6,0.4,1.2,1.2,1.7l43.1,24.9c0.8,0.5,1.9,0.7,2.9,0.7s2.1-0.2,2.9-0.7l43.1-24.9c0.8-0.5,1.2-1.1,1.2-1.7v-3.1
				C134.7,332,134.3,331.4,133.5,331z"/>
			<path class="st3" d="M134.7,332.6v3.1c0,0.6-0.4,1.2-1.2,1.7l-43.1,24.9c-0.8,0.5-1.8,0.7-2.9,0.7v-57.6c1,0,2.1,0.2,2.9,0.7
				l43.1,24.9C134.3,331.4,134.7,332,134.7,332.6z"/>
			<path class="st4" d="M87.5,305.4V363c-1,0-2.1-0.2-2.9-0.7l-43.1-24.9c-0.8-0.5-1.2-1.1-1.2-1.7v-3.1c0-0.6,0.4-1.2,1.2-1.7
				l43.1-24.9C85.4,305.6,86.5,305.4,87.5,305.4z"/>
			<path class="st2" d="M84.6,359.2l-43.1-24.9c-1.6-0.9-1.6-2.4,0-3.3l43.1-24.9c1.6-0.9,4.2-0.9,5.8,0l43.1,24.9
				c1.6,0.9,1.6,2.4,0,3.3l-43.1,24.9C88.8,360.1,86.2,360.1,84.6,359.2z"/>
			<path class="st5" d="M84.6,359.2l-43.1-24.9c-1.6-0.9-1.6-2.4,0-3.3l43.1-24.9c1.6-0.9,4.2-0.9,5.8,0l43.1,24.9
				c1.6,0.9,1.6,2.4,0,3.3l-43.1,24.9C88.8,360.1,86.2,360.1,84.6,359.2z"/>
			<path class="st6" d="M87.5,305.4c-1,0-2.1,0.2-2.9,0.7L41.5,331c-1.6,0.9-1.6,2.4,0,3.3l43.1,24.9c0.8,0.5,1.8,0.7,2.9,0.7
				L87.5,305.4L87.5,305.4z"/>
		</g>
		<path class="st2" d="M114.1,329.5L114.1,329.5l-19.1-57.3c0,0,0,0,0,0l0-0.1h0c-0.3-0.8-1-1.6-2.1-2.2c-3-1.7-7.9-1.7-10.9,0
			c-1.1,0.6-1.8,1.4-2.1,2.2h0l0,0.1c0,0,0,0,0,0l-19.1,57.3h0c-1.8,5,0.7,10.4,7.4,14.2c10.6,6.1,27.8,6.1,38.4,0
			C113.4,339.9,115.9,334.5,114.1,329.5z"/>
		<g>
			<path class="st7" d="M100.5,288.7L100.5,288.7l-2.7-8.2c0.4,1.4,0.1,2.8-1.2,4.1c-0.5,0.5-1,0.9-1.7,1.3
				c-4.1,2.4-10.7,2.4-14.8,0c-0.7-0.4-1.2-0.8-1.7-1.3c-1.2-1.3-1.6-2.7-1.2-4.1l-2.7,8.2l0,0c-0.4,1.4-0.2,2.8,0.6,4.1
				c0.6,1,1.6,1.9,3,2.8c1,0.6,2.1,1,3.3,1.3c3.8,1.1,8.3,1.1,12.2,0c1.2-0.4,2.3-0.8,3.3-1.3c1.4-0.8,2.4-1.7,3-2.8
				C100.8,291.4,101,290,100.5,288.7z"/>
			<path class="st7" d="M111.4,321.5L111.4,321.5l-2.7-8.2c0.4,1.4,0.5,2.7,0.2,4.1c-0.3,1.4-1.1,2.8-2.3,4.1c-1,1.1-2.2,2.1-3.8,3
				c-8.4,4.9-22.1,4.9-30.5,0c-1.6-0.9-2.8-1.9-3.8-3c-1.2-1.3-2-2.7-2.3-4.1c-0.3-1.4-0.3-2.7,0.2-4.1l-2.7,8.1l0,0.1
				c-0.4,1.4-0.5,2.7-0.3,4.1c0.6,3.1,2.9,6.1,7,8.5c9.5,5.5,25,5.5,34.5,0c4.1-2.4,6.4-5.4,7-8.5
				C112,324.2,111.9,322.8,111.4,321.5z"/>
			<path class="st7" d="M106,305.1L106,305.1l-2.7-8.2c0.4,1.4,0.4,2.8-0.3,4.1c-0.7,1.5-2,2.9-4,4.1c0,0-0.1,0.1-0.1,0.1
				c-6.3,3.6-16.4,3.6-22.7,0c0,0-0.1-0.1-0.1-0.1c-2-1.2-3.3-2.6-4-4.1c-0.6-1.3-0.7-2.7-0.3-4.1l-2.7,8.1l0,0.1
				c-0.4,1.4-0.4,2.8,0,4.1c0.5,1.4,1.5,2.8,3,4.1c0.6,0.5,1.4,1,2.2,1.5c2.1,1.2,4.6,2.1,7.2,2.6c3.9,0.8,8.2,0.8,12.2,0
				c2.6-0.5,5.1-1.4,7.2-2.6c0.8-0.5,1.5-1,2.2-1.5c1.5-1.3,2.5-2.6,3-4.1C106.4,307.8,106.4,306.4,106,305.1z"/>
		</g>
		<path class="st3" d="M87.5,268.6c-2,0-3.9,0.4-5.4,1.3c-1.1,0.6-1.8,1.4-2.1,2.2h0l0,0.1c0,0,0,0,0,0l-19.1,57.3h0
			c-1.8,5,0.7,10.4,7.4,14.2c5.3,3.1,12.3,4.6,19.2,4.6c-0.1,0-0.1,0-0.2,0c-8.6-1.4-14.4-9.6-13.2-18.2l7.9-57L87.5,268.6z"/>
		<path class="st2" d="M82.1,276.2c-3-1.7-3-4.5,0-6.3s7.9-1.7,10.9,0s3,4.5,0,6.3C89.9,277.9,85.1,277.9,82.1,276.2z"/>
		<path class="st5" d="M82.1,276.2c-3-1.7-3-4.5,0-6.3s7.9-1.7,10.9,0s3,4.5,0,6.3C89.9,277.9,85.1,277.9,82.1,276.2z"/>
	</g>
	<g id="Cone_00000042016219059121376640000008831889521853064630_">
		<g>
			<path class="st2" d="M452.5,386.8l-43.1-24.9c-0.8-0.5-1.8-0.7-2.9-0.7s-2.1,0.2-2.9,0.7l-43.1,24.9c-0.8,0.5-1.2,1.1-1.2,1.7
				v3.1c0,0.6,0.4,1.2,1.2,1.7l43.1,24.9c0.8,0.5,1.9,0.7,2.9,0.7s2.1-0.2,2.9-0.7l43.1-24.9c0.8-0.5,1.2-1.1,1.2-1.7v-3.1
				C453.6,387.8,453.3,387.2,452.5,386.8z"/>
			<path class="st3" d="M453.6,388.4v3.1c0,0.6-0.4,1.2-1.2,1.7l-43.1,24.9c-0.8,0.5-1.8,0.7-2.9,0.7v-57.6c1,0,2.1,0.2,2.9,0.7
				l43.1,24.9C453.3,387.2,453.6,387.8,453.6,388.4z"/>
			<path class="st4" d="M406.5,361.2v57.6c-1,0-2.1-0.2-2.9-0.7l-43.1-24.9c-0.8-0.5-1.2-1.1-1.2-1.7v-3.1c0-0.6,0.4-1.2,1.2-1.7
				l43.1-24.9C404.4,361.4,405.4,361.2,406.5,361.2z"/>
			<path class="st2" d="M403.6,415l-43.1-24.9c-1.6-0.9-1.6-2.4,0-3.3l43.1-24.9c1.6-0.9,4.2-0.9,5.8,0l43.1,24.9
				c1.6,0.9,1.6,2.4,0,3.3L409.4,415C407.8,415.9,405.2,415.9,403.6,415z"/>
			<path class="st5" d="M403.6,415l-43.1-24.9c-1.6-0.9-1.6-2.4,0-3.3l43.1-24.9c1.6-0.9,4.2-0.9,5.8,0l43.1,24.9
				c1.6,0.9,1.6,2.4,0,3.3L409.4,415C407.8,415.9,405.2,415.9,403.6,415z"/>
			<path class="st6" d="M406.5,361.2c-1,0-2.1,0.2-2.9,0.7l-43.1,24.9c-1.6,0.9-1.6,2.4,0,3.3l43.1,24.9c0.8,0.5,1.8,0.7,2.9,0.7
				L406.5,361.2L406.5,361.2z"/>
		</g>
		<path class="st2" d="M433.1,385.3L433.1,385.3L414,328c0,0,0,0,0,0l0-0.1h0c-0.3-0.8-1-1.6-2.1-2.2c-3-1.7-7.9-1.7-10.9,0
			c-1.1,0.6-1.8,1.4-2.1,2.2h0l0,0.1c0,0,0,0,0,0l-19.1,57.3h0c-1.8,5,0.7,10.4,7.4,14.2c10.6,6.1,27.8,6.1,38.4,0
			C432.4,395.7,434.8,390.3,433.1,385.3z"/>
		<g>
			<path class="st7" d="M419.5,344.4L419.5,344.4l-2.7-8.2c0.5,1.4,0,2.8-1.2,4.1c-0.5,0.5-1,0.9-1.7,1.3c-4.1,2.4-10.7,2.4-14.8,0
				c-0.7-0.4-1.2-0.8-1.7-1.3c-1.2-1.3-1.6-2.7-1.2-4.1l-2.7,8.2l0,0c-0.5,1.4-0.2,2.8,0.6,4.1c0.6,1,1.6,1.9,3,2.8
				c1,0.6,2.1,1,3.3,1.3c3.8,1.1,8.3,1.1,12.2,0c1.2-0.4,2.3-0.8,3.3-1.3c1.4-0.8,2.4-1.7,3-2.8
				C419.7,347.2,419.9,345.8,419.5,344.4z"/>
			<path class="st7" d="M430.4,377.3L430.4,377.3l-2.7-8.2c0.4,1.4,0.5,2.7,0.2,4.1c-0.3,1.4-1.1,2.8-2.3,4.1c-1,1.1-2.2,2.1-3.8,3
				c-8.4,4.9-22.1,4.9-30.5,0c-1.5-0.9-2.8-1.9-3.8-3c-1.2-1.3-2-2.7-2.3-4.1c-0.3-1.4-0.3-2.7,0.1-4.1l-2.7,8.1l0,0.1
				c-0.4,1.4-0.5,2.7-0.3,4.1c0.6,3.1,2.9,6.1,7,8.5c9.5,5.5,25,5.5,34.5,0c4.1-2.4,6.4-5.4,7-8.5C431,380,430.9,378.6,430.4,377.3z
				"/>
			<path class="st7" d="M424.9,360.8L424.9,360.8l-2.7-8.2c0.4,1.4,0.4,2.8-0.3,4.1c-0.7,1.5-2,2.9-4,4.1c0,0-0.1,0.1-0.1,0.1
				c-6.3,3.6-16.4,3.6-22.7,0c0,0-0.1-0.1-0.1-0.1c-2-1.2-3.3-2.6-4-4.1c-0.6-1.3-0.7-2.7-0.3-4.1l-2.7,8.1l0,0.1
				c-0.4,1.4-0.4,2.8,0,4.1c0.5,1.4,1.5,2.8,3,4.1c0.6,0.5,1.4,1,2.2,1.5c2.1,1.2,4.6,2.1,7.2,2.6c3.9,0.8,8.2,0.8,12.2,0
				c2.6-0.5,5.1-1.4,7.2-2.6c0.8-0.5,1.5-1,2.2-1.5c1.5-1.3,2.5-2.6,3-4.1C425.4,363.6,425.4,362.2,424.9,360.8z"/>
		</g>
		<path class="st3" d="M406.5,324.4c-2,0-3.9,0.4-5.4,1.3c-1.1,0.6-1.8,1.4-2.1,2.2h0l0,0.1c0,0,0,0,0,0l-19.1,57.3h0
			c-1.8,5,0.7,10.4,7.4,14.2c5.3,3.1,12.3,4.6,19.2,4.6c-0.1,0-0.1,0-0.2,0c-8.6-1.4-14.4-9.6-13.2-18.2l7.9-57L406.5,324.4z"/>
		<path class="st2" d="M401,332c-3-1.7-3-4.5,0-6.3s7.9-1.7,10.9,0s3,4.5,0,6.3C408.9,333.7,404,333.7,401,332z"/>
		<path class="st5" d="M401,332c-3-1.7-3-4.5,0-6.3s7.9-1.7,10.9,0s3,4.5,0,6.3C408.9,333.7,404,333.7,401,332z"/>
	</g>
</g>
<g id="Character">
	<g id="Character_00000067229372132394688350000004884811218722870665_">
		<g id="Bottom_00000164475255918857987510000000500953917017960333_">
			<g>
				<path class="st8" d="M151.3,369.6c-0.3-1.3-0.4-2.6-0.3-4c0.2-3.4,0.9-7.5,2.7-10.4c2-3.2,4.2-6.4,5.6-9.9
					c1.5-3.8,2.5-7.5,3.1-11.6c0.5-3.2,0.4-6.8,1.7-9.8c3.7-9.1,13.3-7.8,18.9-8.5l20.3-14.1l6.2,28.2c0,0-10.9,3.6-14,5.2
					c-4.2,2.1-8.3,7.4-10.9,11.2c-3.4,4.8-7.5,9.9-7.8,16.1c-0.2,3.4,0.5,6.7,1,10.1c0.1,1,0.3,1.9,0.2,2.9
					c-0.4,2.6-2.7,4.4-4.8,5.9c-3.4,2.4-7.5,4.8-11.4,3.4c-2.2-0.8-3.8-2.8-5.3-4.7C154.3,376.5,152.1,373.1,151.3,369.6z"/>
				<g>
					<path class="st9" d="M175.8,386.2c-1.3,1.7-3.3,2.8-5.3,2.8c-1.2,0-2.5-0.1-4.1-0.5c-3.9-1-6.9-3-6.9-3
						c-6.8-4.1-11.3-11.1-11.7-17c-0.4-5.5,4-16.7,5.1-19.9c1.3-3.4,1.5-7.2,1.4-10.9c-0.2-3.8,0-7.5,0.5-11.3
						c0.2-1.5,0.5-3,1.2-4.2c0.9-1.6,2.4-2.7,4.1-3.3c0.6-0.2,2.6-0.2,3-0.8c0,0-3.1,6.3-2.8,10.4c0.3,4.1-0.7,21.8-2.2,26.3
						s-0.9,12.9,2.6,18.5c3.5,5.5,16.7,11.3,16.7,11.3L175.8,386.2z"/>
					<path class="st10" d="M156.9,343.6c-0.3,3-1.3,6-2.4,8.8c-2.7,6.8-4.6,14.9-1.3,21.9c1.3,2.8,3.5,5.1,6,6.9
						c2.5,1.8,5.2,3.2,8,4.2c4,1.5,7.9,1.2,8.6,0.7c2.1-1.5,3.3-3.7,3.4-6.5c0.1-4.5-0.7-9-0.7-13.5c0-2.3-0.2-4.6,0.4-6.8
						c1.7-6.2,5.9-12,8.9-17.6c0.5-1,1.1-2.1,0.9-3.3c-0.2-1.1-1-1.9-1.8-2.6c-1.6-1.5-3.4-2.8-5.2-4.1c-0.7-0.5-1.5-0.9-2.2-0.7
						c-0.8,0.2-1.2,1.1-1.7,1.9c-0.4,0.7-1.2,1.5-2,1.3c0.4-1.2,0.8-2.4,0.7-3.7c-0.2-3.4-4.6-5-3.3-9c0.5-1.5,1.8-2.5,3.1-3.3
						c1.9-1.2,4.5-2.2,6.5-3c0-1-0.6-1.3-1.1-1.3c-1.1,0-2.1,0.1-3.2,0.2c-2.4,0.2-4.8,0.5-7.2,0.7c-2.3,0.2-4.3,0.7-6.6,1.3
						c-1,0.3-2,0.5-2.9,1.1c-1.4,0.9-2.2,2.6-2.8,4.2c-1.4,3.6-2,7.5-2.2,11.3C156.7,336.5,157.2,340.1,156.9,343.6z"/>
				</g>
				<path class="st10" d="M297.9,207.4c0,0,1.3,18.9,0.4,41.5c-0.3,7.2-1.4,23.4-5.9,33.3c-8.9,19.7-32,27.6-36.4,29.6
					c-19.8,8.9-47.5,19.6-49.9,20.5c0,0-17.7-12.6-14.6-25.3c15.1-12.5,31.3-27.4,46.1-29.9l12.7-68.4L297.9,207.4z"/>
				<path class="st11" d="M205.6,333.2l10.6-4.3c0,0-6.9-3.3-11.8-12.5c-4.8-9.2-3.4-18.2-3.4-18.2l-10.7,8.6c0,0-2.3,6.1,3,16
					C198.7,332.5,205.6,333.2,205.6,333.2z"/>
				<path class="st9" d="M288,225.1l-41.5,7.4l-0.9,2l-7.9,42.5c-6.7,1.1-14.1,4.5-21.1,9.9l0.4,0.7c0,0,0,0,0,0l16.2,33.9
					c8.3-3.1,16.4-7,22.9-9.9c3.3-1.5,18.5-6.9,28.5-17.9l-10.8-47.6C273.8,246.2,287.6,241.1,288,225.1z"/>
			</g>
			<g>
				<path class="st8" d="M300.8,410.5c-1.9,0.1-2-2.4-2.7-8.5c-0.9-6.6-4.2-32.6-4.2-32.6l-29.7,12.3c0,0,7.7,21.4,10.1,27.5
					c2.7,6.8,6.5,16.2,7.1,21.6s0.9,20.2,7.3,22.9s12.3-0.4,16.5-3.3c4.2-2.9,9.1-13,13.7-18.1c4.6-5.1,8.6-7.9,12.1-13.2
					s3.3-18.3-1.5-21.1c-4.9-2.7-11.7,0.4-15.8,3C309.5,403.6,304.2,410.2,300.8,410.5z"/>
				<path class="st10" d="M212.7,205.2c-1.9,6.2-4.6,14.5-5.2,25.9c-0.8,14.9,4.1,25.7,8.7,34.7c8.9,17.5,10.8,22.3,30.6,62
					c0,8.9,1.7,22.4,7.8,39.1c7.7,20.8,15.7,39.7,15.7,39.7s11.5-14.1,28.9-12.1c-0.9-10.2-9-59.6-11.9-73.9
					c-3.5-17.9-18.7-76.9-18.7-76.9s25.6-7.4,30.6-36.1L212.7,205.2z"/>
				<path class="st11" d="M266.8,398.1l4.2,10.5c0,0,4.1-6.5,13.9-10.2c9.7-3.7,14.8-1.5,14.8-1.5l-1.6-12.3c0,0-7.7-2.2-18.1,2
					S266.8,398.1,266.8,398.1z"/>
				<g>
					<g>
						<g>
							<path class="st10" d="M330.1,397.5c-2.8-2.8-7.3-2.8-13.3,0.3c-7.2,3.7-10.6,8.1-10.6,8.1c-0.9,1.2-1.8,2-3.4,1.5
								c-0.5-0.2-1-0.5-1.4-0.7c-3.4-1.8-7.4-0.3-10.7,1.6c-0.3,0.2-0.7,0.4-0.9,0.7c-0.6,1,0.4,2.1,1.3,2.8
								c0.9,0.6,1.6,1.4,2.3,2.3c-0.8-0.2-1.7-0.4-2.5-0.7c-0.5-0.1-1-0.3-1.6-0.1c-0.9,0.2-1.5,1.1-2,2c-0.6,1.2-1.1,2.4-1.4,3.7
								c-0.3,1.2-0.6,2.5-1.5,3.4c-0.8,0.8-2.1,1.1-3.2,0.7c-1.1-0.4-2.2-1.4-2.5-2.6c-0.1,0.1-0.2,0.2-0.3,0.7
								c-0.1,0.3-0.1,0.7,0,1c0.2,0.9,0.8,1.7,1.1,2.6c0.9,2.8,1.2,5.8,1.5,8.7c0.6,7.8,1.5,12.1,2.9,16l31.2-31.7l-2.1-2.8
								C319.9,410.6,330.1,397.5,330.1,397.5z"/>
							<path class="st10" d="M334.4,402.9c-0.5-2.2-1.2-3.6-2.3-4.3c-0.4-0.3-1.8-1-2-1.2c-3.5-2.4-9.8,2.8-15.2,7.8
								c-6.2,5.9-11.9,17.8-17,25.8c-5,8-11.2,11.1-13.3,14.7c-1.5,2.5-1.1,5.3,0.6,7.2c0.3,0.4,1.5,1.5,1.7,1.8
								c1.6,1.7,4.6,2.3,8,1.6c7-1.4,12-3.7,17.7-12.3c5.8-8.6,8.8-13.1,15.5-18.6C334.9,420,335.8,409.9,334.4,402.9z"/>
							<path class="st9" d="M334.4,402.9c-2-9.7-10.6-3-17.5,3.6c-6.2,5.9-11.9,17.8-17,25.8s-11.4,11-13.3,14.7
								c-3.5,6.6,1.3,10.8,8.3,9.4s12-3.7,17.7-12.3c5.8-8.6,8.8-13.1,15.5-18.6C334.9,420,335.8,409.9,334.4,402.9z"/>
						</g>
					</g>
				</g>
			</g>
		</g>
		<g id="Top_00000171703873944937592530000014937653767223980199_">
			<g id="Arm_00000090267331252223168050000014042855622765582501_">
				<g>
					<g id="Tool_Box_1_">
						<polygon class="st9" points="382.4,309.6 378.4,277.7 415,250 415.3,284.7 						"/>
						<polygon class="st10" points="382.4,309.6 318.9,282.8 310.7,249.1 378.4,277.7 						"/>
						<g>
							<g>
								<path class="st2" d="M416.6,242.9c-0.1-0.5-0.5-1-1.2-1.3l-66.5-28.1c-1.5-0.6-3.8-0.3-5,0.6L308.2,241
									c-0.6,0.5-0.9,1.1-0.9,1.6c0.1,0.5,1.1,8.6,1.1,9.1c0.1,0.5,0.5,1,1.2,1.3l66.5,28.1c1.5,0.6,3.8,0.3,5-0.6l35.6-26.9
									c0.6-0.5,0.9-1.1,0.9-1.6C417.7,251.5,416.7,243.4,416.6,242.9z"/>
								<path class="st12" d="M415.4,241.5L371.6,223l7.3,58.4c0.9-0.1,1.8-0.4,2.5-0.9l35.6-26.9c0.6-0.5,0.9-1.1,0.9-1.6
									c-0.1-0.5-1.1-8.6-1.1-9.1C416.6,242.3,416.2,241.9,415.4,241.5z"/>
								<path class="st3" d="M371.6,223l-22.7-9.6c-1.5-0.6-3.8-0.3-5,0.6L308.2,241c-0.6,0.5-0.9,1.1-0.9,1.6
									c0.1,0.5,1.1,8.6,1.1,9.1c0.1,0.5,0.5,1,1.2,1.3l66.5,28.1c0.7,0.3,1.7,0.4,2.6,0.3L371.6,223z"/>
								<path class="st2" d="M380.2,271.4l35.6-26.9c1.3-1,1.1-2.3-0.4-2.9l-66.5-28.1c-1.5-0.6-3.8-0.3-5,0.6L308.2,241
									c-1.3,1-1.1,2.3,0.4,2.9l66.5,28.1C376.6,272.7,378.9,272.4,380.2,271.4z"/>
								<path class="st13" d="M380.2,271.4l35.6-26.9c1.3-1,1.1-2.3-0.4-2.9l-66.5-28.1c-1.5-0.6-3.8-0.3-5,0.6L308.2,241
									c-1.3,1-1.1,2.3,0.4,2.9l66.5,28.1C376.6,272.7,378.9,272.4,380.2,271.4z"/>
							</g>
							<g>
								<path class="st12" d="M319.8,242.2c-1,0.8-0.8,1.8,0.4,2.3l46.3,19.5c1.2,0.5,3.1,0.3,4.1-0.4c1-0.8,0.8-1.8-0.4-2.3
									l-46.3-19.5C322.7,241.3,320.8,241.4,319.8,242.2z"/>
								<path class="st12" d="M366.5,264.1c1.2,0.5,3.1,0.3,4.1-0.4c0.1-0.1,0.1-0.1,0.2-0.2c-0.1-0.1-0.2-0.1-0.4-0.2l-46.3-19.5
									c-1.2-0.5-3.1-0.3-4.1,0.4c-0.1,0.1-0.1,0.1-0.2,0.2c0.1,0.1,0.2,0.1,0.4,0.2L366.5,264.1z"/>
							</g>
							<g>
								<path class="st12" d="M349.1,220c-1,0.8-0.8,1.8,0.4,2.3l46.3,19.5c1.2,0.5,3.1,0.3,4.1-0.4c1-0.8,0.8-1.8-0.4-2.3
									l-46.3-19.5C352,219.1,350.1,219.3,349.1,220z"/>
								<path class="st12" d="M395.8,241.9c1.2,0.5,3.1,0.3,4.1-0.4c0.1-0.1,0.1-0.1,0.2-0.2c-0.1-0.1-0.2-0.1-0.4-0.2l-46.3-19.5
									c-1.2-0.5-3.1-0.3-4.1,0.4c-0.1,0.1-0.1,0.1-0.2,0.2c0.1,0.1,0.2,0.1,0.4,0.2L395.8,241.9z"/>
							</g>
							<g>
								<path class="st12" d="M392.3,244.7c1.2,0.5,1.2,1.6,0.2,2.4L378.1,258c-1.1,0.8-2.9,1.1-4.1,0.6c-1.2-0.5-1.2-1.6-0.2-2.4
									l14.4-10.9C389.3,244.5,391.1,244.3,392.3,244.7z"/>
								<path class="st12" d="M378.1,258c-1.1,0.8-2.9,1.1-4.1,0.6c-0.1,0-0.2-0.1-0.2-0.1c0.1-0.1,0.2-0.2,0.3-0.3l14.4-10.9
									c1.1-0.8,2.9-1.1,4.1-0.6c0.1,0,0.2,0.1,0.2,0.1c-0.1,0.1-0.2,0.2-0.3,0.3L378.1,258z"/>
							</g>
							<g>
								<path class="st12" d="M400.8,248.3c1.2,0.5,1.2,1.6,0.2,2.4l-14.4,10.9c-1.1,0.8-2.9,1.1-4.1,0.6c-1.2-0.5-1.2-1.6-0.2-2.4
									l14.4-10.9C397.8,248.1,399.6,247.8,400.8,248.3z"/>
								<path class="st12" d="M386.5,261.6c-1.1,0.8-2.9,1.1-4.1,0.6c-0.1,0-0.2-0.1-0.2-0.1c0.1-0.1,0.2-0.2,0.3-0.3l14.4-10.9
									c1.1-0.8,2.9-1.1,4.1-0.6c0.1,0,0.2,0.1,0.2,0.1c-0.1,0.1-0.2,0.2-0.3,0.3L386.5,261.6z"/>
							</g>
							<g>
								<path class="st12" d="M341.5,223.3c1.2,0.5,1.2,1.6,0.2,2.4l-14.4,10.9c-1.1,0.8-2.9,1.1-4.1,0.6s-1.2-1.6-0.2-2.4
									l14.4-10.9C338.5,223.1,340.4,222.8,341.5,223.3z"/>
								<path class="st12" d="M327.3,236.6c-1.1,0.8-2.9,1.1-4.1,0.6c-0.1,0-0.2-0.1-0.2-0.1c0.1-0.1,0.2-0.2,0.3-0.3l14.4-10.9
									c1.1-0.8,2.9-1.1,4.1-0.6c0.1,0,0.2,0.1,0.2,0.1c-0.1,0.1-0.2,0.2-0.3,0.3L327.3,236.6z"/>
							</g>
							<g>
								<path class="st12" d="M350,226.9c1.2,0.5,1.2,1.6,0.2,2.4l-14.4,10.9c-1.1,0.8-2.9,1.1-4.1,0.6c-1.2-0.5-1.2-1.6-0.2-2.4
									l14.4-10.9C347,226.6,348.8,226.4,350,226.9z"/>
								<path class="st12" d="M335.7,240.1c-1.1,0.8-2.9,1.1-4.1,0.6c-0.1,0-0.2-0.1-0.2-0.1c0.1-0.1,0.2-0.2,0.3-0.3l14.4-10.9
									c1.1-0.8,2.9-1.1,4.1-0.6c0.1,0,0.2,0.1,0.2,0.1c-0.1,0.1-0.2,0.2-0.3,0.3L335.7,240.1z"/>
							</g>
						</g>
						<g>
							<polygon class="st11" points="358.9,282.5 360.3,281.4 364.5,283.2 363.2,284.3 							"/>
							<polygon class="st9" points="363.2,284.3 367,303.2 364.5,283.2 							"/>
							<polygon class="st10" points="358.9,282.5 362.8,301.4 362.3,301.2 							"/>
						</g>
						<g>
							<polygon class="st11" points="392.4,282.1 390.9,281.4 387.2,284.2 388.8,284.8 							"/>
							<polygon points="392.4,282.1 393.4,301.3 393.8,301 							"/>
						</g>
						<g>
							<polygon class="st11" points="407.1,271 405.5,270.3 401.9,273.1 403.4,273.8 							"/>
							<g>
								<polygon class="st10" points="389.7,304.1 388.8,284.8 387.2,284.2 								"/>
								<polygon class="st10" points="401.9,273.1 404.3,293 403.4,273.8 								"/>
							</g>
							<polygon points="407.1,271 408,290.2 408.5,290 							"/>
						</g>
						<g>
							<polygon class="st11" points="329.3,270 330.7,268.9 334.9,270.7 333.5,271.8 							"/>
							<polygon class="st9" points="333.5,271.8 337.4,290.6 334.9,270.7 							"/>
							<polygon class="st10" points="329.3,270 333.1,288.9 332.6,288.7 							"/>
						</g>
						<g>
							<polygon class="st1" points="366.1,278.3 365.5,273.7 357,270.2 355.8,271.1 356.4,275.6 364.8,279.2 							"/>
							<polygon class="st7" points="355.8,271.1 356.4,275.6 364.8,279.2 364.3,274.7 							"/>
							<polygon class="st12" points="364.3,274.7 365.5,273.7 366.1,278.3 364.8,279.2 							"/>
						</g>
						<g>
							<polygon class="st1" points="336.2,265.7 335.6,261.1 327.2,257.6 325.9,258.5 326.5,263.1 335,266.6 							"/>
							<polygon class="st7" points="325.9,258.5 326.5,263.1 335,266.6 334.4,262.1 							"/>
							<polygon class="st12" points="334.4,262.1 335.6,261.1 336.2,265.7 335,266.6 							"/>
						</g>
					</g>
					<path class="st8" d="M343.6,202.1c0,0,8,10.3,7.8,11.4c-0.5,3.1-0.6,4.9,0.3,8.3c0.5,2.1,22.1,9.3,22.1,9.3l0.2-2.9
						c0.2-1.9-1-9.3-1.7-11.2c-2.3-5.9-4.8-11.1-9.6-20.6L343.6,202.1z"/>
					<path class="st14" d="M351.3,220.1l22.8,8.7l-0.2,2.5c0,0-21.6-7.3-22.1-9.3C351.6,221.2,351.4,220.6,351.3,220.1z"/>
					<g id="XMLID_00000102532883198572060800000017332711680317758396_">
						<path id="XMLID_632_" class="st9" d="M352.9,227.8l1,8.6l-3.1,2.3l-1.3-11.4c-0.1-0.6,0.3-0.9,0.9-0.6L352.9,227.8z"/>
						<path id="XMLID_630_" class="st11" d="M377.4,233.5l1.6,13.8l-3,2.2l-2.3-1l-1.3-11.4c-0.1-0.6-0.6-1.2-1.1-1.5l-17.4-7.5
							l-3.6-1.6c-0.5-0.2-0.9,0.1-0.9,0.6l1.3,11.4l-2.3-1l-1.6-13.8c0-0.1,0-0.1,0-0.2c0-0.6,0.3-1.2,0.7-1.5l1.3-0.9
							c0.5-0.4,1.3-0.4,1.8-0.2l25.6,11C376.9,232.3,377.4,232.9,377.4,233.5z"/>
						<path id="XMLID_338_" class="st10" d="M374.5,235.7l1.6,13.8l-2.3-1l-1.3-11.4c-0.1-0.6-0.6-1.2-1.1-1.5l-17.4-7.5l-3.6-1.6
							c-0.5-0.2-0.9,0.1-0.9,0.6l1.3,11.4l-2.3-1l-1.6-13.8c0-0.1,0-0.1,0-0.2c0-0.5,0.4-0.7,0.9-0.5l25.6,11
							C373.9,234.5,374.4,235.2,374.5,235.7z"/>
					</g>
					<path class="st8" d="M357.7,227.5c-0.4,0-0.8,0.2-1.1,0.4c-0.6-0.8-1.5-1.3-2.5-1.2c-0.4,0-0.9,0.2-1,0.7c0,0.1,0,0.3,0,0.4
						c0.2,1.4,0.5,2.7,0.9,4c0.2,1,0.6,2,1.4,2.6c0.6,0.5,1.6,0.6,2.3,0.3c0.3,0.6,0.9,1.1,1.6,1.3c0.2,0.1,2.1,0.1,1.9-0.1
						c0.8,1.3,2.5,2.5,4.5,2c0,0,0.6,1.4,3.3,0.9s3.7-3.3,3.7-3.3l-2-0.7c0,0-0.8-0.5-1.3-0.7c-0.6-0.3-0.7-1.6-1.2-2.1
						c-0.5-0.5-1.1-1-1.8-1.2c-0.7-0.2-1.5-0.1-2,0.4c-0.1-0.5-0.5-1-0.9-1.4c-0.4-0.3-0.8-0.7-1.4-0.7c-0.2,0-1.4,0.3-1.2,0.6
						c-0.4-0.8-1-1.5-1.8-1.9C358.7,227.5,358.2,227.4,357.7,227.5z"/>
					<path class="st8" d="M365.8,206.2c0.5,0.8,1,1.5,1.6,2.3c2.8,4,6,8.3,5.8,13.4c0,1.2-0.4,3-0.7,4.2c-0.2,0.7-0.4,1.3-0.6,2
						c-0.2,0.7-0.4,1.4-0.7,2.1c-0.4,0.9-1,1.6-1.5,2.4c-1,1.3-2,2.7-3.3,3.7c-0.1,0.1-0.1,0.1-0.2,0.1c-0.3,0.1-0.7,0-1-0.2
						c-1.3-1.2-0.5-3.2,0-4.5c0.6-1.5,1.3-3.1,1.1-4.7c0-0.2-0.1-0.9-0.1-1.9c0,0-1.7-0.3-1.7-0.3s-5.5-0.9-5.8-3.5
						c-0.2-1.4,0.3-2.8,0.9-4.1c0.4-1,1.4-2.1,1.6-3.2c0.2-1.3-0.6-3-0.9-4.3c-0.4-1.6-0.7-3.2-1.1-4.8c-0.1-0.3-0.1-0.6,0-0.9
						c0.1-0.3,0.4-0.5,0.6-0.7c1-0.9,1.9-2,2.5-3.2C363.3,202.2,364.5,204.3,365.8,206.2z"/>
					<g>
						<path class="st14" d="M371.2,230.2c-1.1,2.1-2.5,4-4.2,5.7c-0.3,0.2-0.5,0.7-1,0.7c-2.6-0.3-1.6-3.7-0.9-5.2
							c0.6-1.4,1.3-2.9,1.2-4.5c0.2,1.6-0.4,3.1-0.9,4.6c-0.6,1.4-1.5,4.3,0.5,4.8C368,234.8,369.7,232.3,371.2,230.2L371.2,230.2z"
							/>
					</g>
					<path class="st14" d="M364.9,225.1c-0.7-0.3-1.4-0.5-2.1-0.8c-0.5-0.3-0.9-0.7-1.3-1.1c-0.9-1.1-1.7-2.6-1.6-4
						c0-0.1-0.1-0.2-0.1-0.1c-0.5,1.6,0.1,3.4,1.1,4.8c0.5,0.6,1.1,1.1,1.8,1.5c0.4,0.2,0.7,0.3,1.1,0.4c0.4,0.1,0.8,0.1,1.2-0.2
						C365.1,225.5,365,225.2,364.9,225.1z"/>
				</g>
				<path class="st11" d="M305,107c-8,6.1-7.6,21.2-2.6,34.5c5.5,15,10.9,24.4,18.7,35.1c6.6,9.1,25,30.2,25,30.2s11.5-2.1,17.6-9.7
					l-19.9-37.3c0,0-6.9-15.5-11.5-28.1C326.8,117.1,320.4,107.2,305,107z"/>
			</g>
			<g id="Chest_00000085940439846504764350000015318015800896956088_">
				<g>
					<path class="st15" d="M260.6,223c-23.8,0-38-12.1-45.7-18.8c0.5-1.7,2.7-9.8,4.4-16.2l0.6-2.3c2.5-9,4.6-16.8,5.8-34.9
						c0.3-4.6,0.4-8.9,0.4-12.7c0.2-13.3,0.3-22.2,9.5-24.9c0.8-0.2,3.7-1,4.7-1.2c11.5-2.6,36.8-4.8,55.3-4.8
						c3.4,0,6.5,0.1,9.2,0.2c4.1,2.3,14,21.2,9.2,42.9c-2,8.8-4.3,15-6.7,21.6c-1.4,3.7-2.8,7.5-4.2,11.8c-2.9,9-3.3,12.5-3.7,16.5
						c-0.1,1.1-0.2,2.2-0.4,3.5c-0.8,5.8-8.2,16.4-30.7,18.8C265.7,222.8,263.1,223,260.6,223z"/>
					<path class="st1" d="M295.7,106.8v1h0c3.3,0,6.4,0.1,9.1,0.2c4.3,2.6,13.4,21.9,8.8,42.3c-2,8.8-4.3,15-6.7,21.6
						c-1.4,3.7-2.8,7.5-4.2,11.9c-2.9,9-3.3,12.5-3.7,16.6c-0.1,1.1-0.2,2.2-0.4,3.5c-0.8,5.7-8.1,16-30.3,18.3
						c-2.6,0.3-5.2,0.4-7.7,0.4c-23.4,0-37.4-11.8-45.1-18.4c0.6-2.2,2.7-9.8,4.4-15.9c0.2-0.8,0.4-1.6,0.6-2.3
						c2.5-9,4.6-16.9,5.8-35c0.3-4.6,0.4-8.9,0.4-12.7c0.2-13.6,0.3-21.8,9.1-24.5c0.8-0.2,3.7-1,4.7-1.2
						c11.4-2.6,36.7-4.8,55.2-4.8L295.7,106.8 M295.7,106.8c-18.9,0-44,2.2-55.4,4.8c-1,0.2-3.9,0.9-4.7,1.2
						c-12.2,3.7-9,17.5-10.3,38c-1.2,19.5-3.6,26.8-6.4,37.1c-2,7.2-4.5,16.5-4.5,16.5c7.5,6.5,22,19.1,46.2,19.1
						c2.5,0,5.1-0.1,7.8-0.4c22.9-2.4,30.3-13.1,31.1-19.2c0.9-6.1,0.5-8.6,4.1-19.9c3.9-12.2,7.9-19.7,10.9-33.5
						c4.8-21.6-5-41.2-9.5-43.5C302.2,106.8,299,106.8,295.7,106.8L295.7,106.8z"/>
				</g>
			</g>
			<g>
				<g id="Head_00000103262524721232193390000004527654621923133591_">
					<g>
						<g id="XMLID_00000027580755798116626170000017351228118476597636_">
							<g id="XMLID_00000011722615083818937460000009236099830246109583_">
								<path class="st10" d="M296.7,54.9c0,0,4.9,0.2,7.2,3.9s3.8,10.5,1,18.1c-3.1,8.4-9.3,16.5-10.6,18.9c-1.3,2.4-4,3-4,3
									l0.6-10.3l0.6-7.2c0,0-5.6-5.4-6-10.6c-0.4-6.7,2.3-10.4,2.3-10.4L296.7,54.9z"/>
								<path class="st10" d="M251.4,54.4c5.1-14.4,13-14.3,24.6-13.3c14.2,1.2,21.3,8.4,22.1,14.2l-10.2,9.5l-36.6,1.2
									C248.2,64.7,245.8,58.1,251.4,54.4z"/>
								<path class="st8" d="M300.3,91.8c-5.4,2.4-7.7-1.9-7.7-1.9l-0.9,18.1c9.7,15.1-20,16.5-27.2,2.4l0.5-6.4
									c0,0-1.8-0.1-4.6-0.6c-4.7-0.9-8.8-4.8-10-10c-1.8-7.7-1.1-19.8,2.2-32.6c0.6-2.5,1.8-5.2,4.1-6.2
									c5.8-2.6,10.9,1.6,18.7,4.9c3.2,1.4,11.2,2.2,13.3,1.3c-2.9,3-3.1,12.6,0.8,16.6c0.7,1.4,1.4,2.2,2,2.7
									c1.7,1.6,3.2-2.3,4.7-3.8c1.5-1.5,7-2.7,9.2,2.4C307.5,84,305.3,89.6,300.3,91.8z"/>
								<path class="st14" d="M264.9,104c6.2,0.2,11.8-0.4,15.5-1.9s7.1-6.3,8.3-11.2c-0.1,4-2.1,10.9-7.7,13.7s-12.1,2.7-16.2,2.7
									L264.9,104z"/>
							</g>
							<g id="XMLID_00000091693952630523727040000003035786808213235642_">
								<path id="XMLID_00000023253381590172681220000009412167977378489786_" class="st10" d="M275,66.8l5.3,2.1
									c0.5-1.5-0.2-3.2-1.7-3.8C277.2,64.5,275.5,65.3,275,66.8z"/>
								<path id="XMLID_00000127730463513735303690000015242447759541728701_" class="st10" d="M255.3,66.5l5.3-2.3
									c-0.6-1.5-2.2-2.2-3.7-1.6C255.5,63.3,254.7,65,255.3,66.5z"/>
								<path class="st9" d="M278.4,73.3c0,1.3-1.1,2.3-2.3,2.3c-1.3,0-2.3-1.1-2.3-2.3s1.1-2.3,2.3-2.3
									C277.4,71,278.4,72.1,278.4,73.3z"/>
								<path class="st9" d="M260.6,70.9c0,1.3-1.1,2.3-2.3,2.3s-2.3-1.1-2.3-2.3c0-1.3,1.1-2.3,2.3-2.3
									C259.8,68.6,260.7,69.4,260.6,70.9z"/>
								<path id="XMLID_00000132797495574520745260000015199817657565856188_" class="st14" d="M268.6,68.4L267,83.3l-7.9-2.7
									C261.8,75.3,264.9,71.3,268.6,68.4z"/>
							</g>
						</g>
					</g>
					<path id="XMLID_00000057860171732869510500000001433092490957156023_" class="st16" d="M273.9,85.7l-9.3,3.3
						c0.9,2.7,3.7,4.1,6.2,3.1C273.4,91.2,274.7,88.3,273.9,85.7z"/>
				</g>
				<path class="st10" d="M277,55.9c-5.2-2-14.2-2.6-19.1-2.1c1.1-3.4,1.4-7.8,10-6.9C276.6,47.8,277.9,51.6,277,55.9z"/>
				<g>
					<path class="st2" d="M307.8,69c-0.6,2.8-1.6,5.5-2.9,7.9c-0.5-0.8-1.1-1.7-1.8-2.5c-3.4-4.4-8-8.2-13.1-11.4l0,0
						c-11.6-7.1-26.3-10.7-38.7-8.7c0.7-2.4,1.7-4.6,3-6.6c6.2-10.3,18.5-16,30.9-13.4C301,37.8,311.1,53.2,307.8,69z"/>
					<path class="st2" d="M298.5,38.8c-1.4-0.9-8.4-3.9-9-4.1c-3.7-1.6-9.8-2.2-16.6,2.3c-8.8,5.8-11.5,14.7-11.5,14.7l7.5,3.3
						l2.5,0.5c1.6-5.6,10.5-17.1,21.1-16.4c0.5,0,1,0.1,1.5,0.2c1.3,0.2,2.7,0.6,4,1.3c0,0,2.6,2.3,3.7,3.7
						C301.7,44.3,301.8,40.8,298.5,38.8z"/>
					<path class="st17" d="M298.5,38.8c-1.4-0.9-8.4-3.9-9-4.1c-3.7-1.6-9.8-2.2-16.6,2.3c-8.8,5.8-11.5,14.7-11.5,14.7l7.5,3.3
						l2.5,0.5c1.6-5.6,10.5-17.1,21.1-16.4c0.5,0,1,0.1,1.5,0.2c1.3,0.2,2.7,0.6,4,1.3c0,0,2.6,2.3,3.7,3.7
						C301.7,44.3,301.8,40.8,298.5,38.8z"/>
					<path class="st2" d="M271.3,55.4c1.8-6.5,13.7-21.1,26.6-14.9c0,0,2.6,2.3,3.8,3.7c0,0,0.2-3.5-3.1-5.5
						c-3.3-2.1-10.2-3.7-18.1,1.5c-8.8,5.8-11.5,14.7-11.5,14.7L271.3,55.4z"/>
					<path class="st4" d="M271.3,55.4c1.8-6.5,13.7-21.1,26.6-14.9c0,0,2.6,2.3,3.8,3.7c0,0,0.2-3.5-3.1-5.5
						c-3.3-2.1-10.2-3.7-18.1,1.5c-8.8,5.8-11.5,14.7-11.5,14.7L271.3,55.4z"/>
					<path class="st2" d="M290.5,60.8c-0.5-0.6-2.6-6.7-11.6-12.9c-5.6-3.8-17.8-5.4-23.3-5.9c-9.6-0.9-12.1,0.9-12.4,2.3
						c-0.1,0.3-0.4,1.9-0.5,2.2s0,0.7,0.1,0.9c1.2,2.3,8.5,7,8.5,7c12.3-2,27.1,1.6,38.7,8.7L290.5,60.8z"/>
					<path class="st18" d="M290.5,60.8c-0.5-0.6-2.6-6.7-11.6-12.9c-5.6-3.8-17.8-5.4-23.3-5.9c-9.6-0.9-12.1,0.9-12.4,2.3
						c-0.1,0.3-0.4,1.9-0.5,2.2s0,0.7,0.1,0.9c1.2,2.3,8.5,7,8.5,7c12.3-2,27.1,1.6,38.7,8.7L290.5,60.8z"/>
					<path class="st2" d="M290,63.1c-11.6-7.1-26.3-10.7-38.7-8.7c0,0-7.3-4.6-8.5-7c-0.6-1.3,0.4-4.3,12.3-3.2
						c5.5,0.5,17.7,2,23.3,5.9C287.5,56.4,289.5,62.5,290,63.1z"/>
					<path class="st4" d="M290,63.1c-11.6-7.1-26.3-10.7-38.7-8.7c0,0-7.3-4.6-8.5-7c-0.6-1.3,0.4-4.3,12.3-3.2
						c5.5,0.5,17.7,2,23.3,5.9C287.5,56.4,289.5,62.5,290,63.1z"/>
				</g>
			</g>
			<g>
				<path class="st10" d="M212.7,205.2l2.4-6.5c0,0,15.7,6.2,27.2-7.4c8-9.5,13.6-36.6,13.6-36.6s26.5,3.2,52.6-3.3
					c0,0-3.1,48-11.4,68.5C271.2,233.5,228,234.3,212.7,205.2z"/>
				<path class="st11" d="M265.3,164.3c0,0,21.4,0.6,33.6-2.1c-0.6,11.4-4.3,19-19,20.1C268.5,183.2,263.4,175.1,265.3,164.3z"/>
				<path class="st10" d="M255.9,154.7c0,0,5-23-0.6-36.8c-3.2-7.9-8-7.7-8-7.7s6-1.8,11.4-1.2c3.1,1.4,5.6,6.4,6.9,13.7
					c1.4,8.2,1.5,21.1-0.6,35.9L255.9,154.7z"/>
				<path class="st10" d="M299,154.9c0,0,4.1-27.1-1.4-41c-1.3-3.3-3.2-5.1-4.9-6l-1-0.4l0-0.9c2.6-0.2,7.6-0.4,10.3-0.1
					c4.2,3,4.8,5.4,6,12.6c1.4,8.2,1.4,22.1,0.2,36.3L299,154.9z"/>
			</g>
		</g>
		<g id="Screwdriver_00000140712235562085182990000009983584212854899086_">
			<g id="Screwdriver_00000085238340111633102790000017903229553793705148_">
				<path id="XMLID_00000165931305893344843280000005793767300677698961_" class="st2" d="M201.6,229.7l-16.9,35.2l-68.6-33
					c-2.8-1.1-4.7-4.2-5.1-8.8c-0.7-8.8,4.7-19.9,12-24.9c3.6-2.5,7.1-3,9.7-1.7v0L201.6,229.7z"/>
				<path id="XMLID_00000076580911544304715890000011168813614410672289_" class="st19" d="M201.6,229.7l-16.9,35.2l-68.6-33
					c-2.8-1.1-4.7-4.2-5.1-8.8c-0.7-8.8,4.7-19.9,12-24.9c3.6-2.5,7.1-3,9.7-1.7v0L201.6,229.7z"/>
				<path id="XMLID_00000183934931192619794830000009181477072373280903_" class="st2" d="M206.1,236.4L206.1,236.4
					c0.7,5.1,8,5.7,8,5.7l-12,24.9c0,0-5-5.3-9.4-2.7l0,0c-6.6,3.5-12.1,0.2-12.7-7.9c-0.7-8.8,4.7-19.9,12-24.9
					C198.7,226.8,204.6,229.1,206.1,236.4z"/>
				<path id="XMLID_00000096738314527934528890000007539011270155897513_" class="st3" d="M206.1,236.4L206.1,236.4
					c0.7,5.1,8,5.7,8,5.7l-12,24.9c0,0-5-5.3-9.4-2.7l0,0c-6.6,3.5-12.1,0.2-12.7-7.9c-0.7-8.8,4.7-19.9,12-24.9
					C198.7,226.8,204.6,229.1,206.1,236.4z"/>
				<path id="XMLID_00000152247196018341801830000008472039862475484038_" class="st6" d="M210.7,241.3c1.8,0.6,3.4,0.8,3.4,0.8
					l-12,24.9c0,0-1.1-1.2-2.7-2.1C199.1,256.5,204,246.3,210.7,241.3z"/>
				<path id="XMLID_00000094576100526814515510000011436342381212335518_" class="st2" d="M228.6,242.6l-1,2.1
					c0.5,1.2,0.8,2.6,0.9,4.2c0.7,8.8-4.7,20-12,24.9c-1.3,0.9-2.6,1.5-3.9,1.9l-1,2.1l-4.8-2.3l0,0c-2.6-1.3-4.4-4.2-4.7-8.6
					c-0.7-8.8,4.7-19.9,12-24.9c3.6-2.5,7.1-3,9.7-1.7l0,0L228.6,242.6z"/>
				<path id="XMLID_00000034781869389936829990000002078795575130314667_" class="st19" d="M228.6,242.6l-1,2.1
					c0.5,1.2,0.8,2.6,0.9,4.2c0.7,8.8-4.7,20-12,24.9c-1.3,0.9-2.6,1.5-3.9,1.9l-1,2.1l-4.8-2.3l0,0c-2.6-1.3-4.4-4.2-4.7-8.6
					c-0.7-8.8,4.7-19.9,12-24.9c3.6-2.5,7.1-3,9.7-1.7l0,0L228.6,242.6z"/>
				<g id="XMLID_00000112620521276787215570000010796497678269476004_">
					<path id="XMLID_00000140714830639254596140000018391176574307756698_" class="st2" d="M206.9,269.3c-0.7-8.8,4.7-19.9,12-24.9
						c7.3-5,13.7-1.9,14.4,6.9s-4.7,20-12,24.9C214,281.2,207.6,278.1,206.9,269.3z"/>
					<path id="XMLID_00000169554515953137943660000014289874591216806273_" class="st18" d="M206.9,269.3c-0.7-8.8,4.7-19.9,12-24.9
						c7.3-5,13.7-1.9,14.4,6.9s-4.7,20-12,24.9C214,281.2,207.6,278.1,206.9,269.3z"/>
					<path class="st18" d="M226.3,271.4c-1,1.2-2.1,2.3-3.2,3.3l-3.9-9l3.7-3.2L226.3,271.4z"/>
				</g>
				<path id="XMLID_00000083065109996411976310000015068371975242716064_" class="st2" d="M121.5,212.9L121.5,212.9
					c-0.9,1.9-0.1,4.2,1.8,5.1l49,23.6c1.9,0.9,4.2,0.1,5.1-1.8l0,0c0.9-1.9,0.1-4.2-1.8-5.1l-49-23.6
					C124.7,210.2,122.4,211,121.5,212.9z"/>
				<path id="XMLID_00000055705347464954827960000014089259626083074727_" class="st2" d="M129.2,202.1L129.2,202.1
					c-1.4,1.4-1.2,3.1,0.5,3.9l49.9,24c1.6,0.8,4.1,0.3,5.5-1l0,0c1.4-1.4,1.2-3.1-0.5-3.9l-49.9-24
					C133,200.3,130.6,200.8,129.2,202.1z"/>
				<path id="XMLID_00000173134772895065568460000018039586422274456721_" class="st2" d="M117.9,225.6L117.9,225.6
					c0.2-1.9,1.7-2.9,3.3-2.1l49.9,24c1.6,0.8,2.8,3,2.6,4.9l0,0c-0.2,1.9-1.7,2.9-3.3,2.1l-49.9-24
					C118.9,229.7,117.7,227.5,117.9,225.6z"/>
				<g id="XMLID_00000040569032237044395810000003558428257757331870_">
					<path id="XMLID_00000018195962208115073970000004550702912548467379_" class="st11" d="M345.8,314.8l0.7,9.2l-23.5-5.7
						c0,0-5.2-8.1-10-10.4L221.8,264l-3.3-7.4l2.6-1.8l91.1,43.8c4.8,2.3,9.2-1.2,9.2-1.2L345.8,314.8z"/>
					<path id="XMLID_00000158000746975517326200000015631077737008645768_" class="st10" d="M343.2,316.5l0.7,9.2l-23.5-5.7
						c0,0-5.2-8.1-10-10.4l-91.1-43.8l-0.7-9.2l91.1,43.8c4.8,2.3,9.2-1.2,9.2-1.2L343.2,316.5z"/>
					<g id="XMLID_00000132809294830766464900000015021605119514556863_">
						<path class="st9" d="M343.9,325.7c-5.9-1.3-17.7-4-23.6-5.4c-2.9-3.6-5.8-8-10.1-10.3c-30.4-14.5-61-29.1-91-44.3
							c30.6,14,61.2,28.7,91.5,43.4c4.3,2.5,7.2,6.6,10,10.6l-0.2-0.1C326.3,321.1,338.1,324.2,343.9,325.7L343.9,325.7z"/>
					</g>
					<polygon id="XMLID_00000055669883103581075040000017502742037240826019_" class="st9" points="343.9,325.7 346.5,324 
						345.8,314.8 343.2,316.5 					"/>
					<polygon id="XMLID_00000157283637945608248070000012768557639765939631_" class="st11" points="345.8,314.8 343.2,316.5 
						318.8,299.2 321.4,297.4 					"/>
				</g>
			</g>
		</g>
		<g id="Arm_00000149361728774799694060000017786732163141384634_">
			<g>
				<g>
					<path class="st8" d="M191,250.9c-1.5-1.8-2.8-5.3-4.1-9.5c-1.2-4.2-3.1-5.3-5.1-7.8s-1.2-4-0.6-5.4
						c0.3-0.8,16.2-40.2,16.2-40.2s15.6-14,25.1-23.4c13-11.3,18.7-34.8,14.4-40.2c-3.4,1.1-8,0.2-17.2,3.8
						c-4.7,1.9-7.3,5.1-13.1,11.6c-10.5,11.8-21.1,25-26,29.9c-3.4,3.5-6.3,7-8.5,16.4c-2.3,9.7-8.2,35.7-8.7,37.4
						c-1.7,5.4-5.5,12.6-5.7,16c-0.2,3.4-0.3,7.7-0.2,10.4c0.1,2.7,2.1,4.3,2.2,4.3c0.1,0.6,0.3,1.2,0.4,1.4
						c0.2,0.6,0.7,1.1,1.2,1.5c0.8,0.6,1.5,0.8,2.5,1c0.1,1,0.9,1.8,1.6,2.4c0.6,0.5,1.3,0.9,2.1,1c0.8,0.2,1.6,0,2.3-0.4
						c0.1-0.1,0.2-0.1,0.3-0.1c0.2,0,0.3,0.1,0.4,0.2c0.8,0.8,1.9,1.3,3.1,1.3c1.1,0,1.8-0.2,2.7-0.9c0.6-0.4,0.8-0.6,0.8-0.6
						l-1.1-0.5c0,0-0.3-0.3-0.6-1.2c-0.1-0.6-0.3-1.2-0.2-1.8c0.2-2-0.1-2.9,0.9-7.7s1.9-6.2,3.1-6.2c1.2,0.1,2.7,3.6,6.3,7.6
						C188.9,255.3,192.4,252.7,191,250.9z"/>
					<path class="st14" d="M163.2,257.5c0,0.2,0,0.4,0,0.6c0.1,0,0.2,0,0.3,0.1c0,0.3,0.2,0.6,0.3,0.9c0-0.5-0.1-1-0.1-1.5
						c-0.1-2.6,0-5.2,0.1-7.8C163.3,252.3,163.2,254.9,163.2,257.5z"/>
					<path class="st14" d="M159.5,254.3c-0.4-1.3-0.5-2.6-0.5-3.9c0-1.3,0.1-2.6,0.4-3.9c0.1,1.3,0.1,2.6,0.1,3.9L159.5,254.3z"/>
				</g>
				<path class="st14" d="M170.2,261.3c-1.9-3.9-1.4-9.9-1.4-9.9s-1.8,5,1.1,9.7L170.2,261.3z"/>
			</g>
			<path class="st11" d="M240.3,111.6c-17.8,2.6-21.8,9.1-35.4,21.9c-11.4,10.7-17.2,17.2-23.6,25.1c-5.1,6.3-7.7,16-9.9,23.2
				c-2.2,7.2-7,33.2-7,33.2c5.5-3.6,17,1.1,20,7.1l19.5-40.6c0,0,21.2-16.6,28.7-23.3S254.2,134.5,240.3,111.6z"/>
		</g>
	</g>
	<path id="Lines_00000121971491168616266080000008341730344146688897_" class="st1" d="M242.5,385.1c-4.3-2.7-8.6-5.4-12.9-8
		c-4.3-2.6-8.7-5.2-13-7.7c-4.4-2.6-8.8-5-13.2-7.4c4.2,2.8,8.4,5.6,12.7,8.3c4.3,2.7,8.6,5.4,12.9,8c4.3,2.6,8.7,5.2,13,7.7
		c4.4,2.6,8.8,5,13.2,7.4C251,390.5,246.8,387.8,242.5,385.1z M222.5,361.9c4.3,2.6,8.7,5.2,13,7.7c4.4,2.6,8.8,5,13.2,7.4
		c-4.2-2.8-8.4-5.6-12.7-8.3c-4.3-2.7-8.6-5.4-12.9-8c-4.3-2.6-8.7-5.2-13-7.7c-4.4-2.6-8.8-5-13.2-7.4c4.2,2.8,8.4,5.6,12.7,8.3
		C213.9,356.7,218.2,359.3,222.5,361.9z"/>
</g>
<g id="Speech_Bubble">
	<g id="Speech_Bubble_1_">
		<g id="Speech_Bubble_00000095329369425384752640000003183154258885870227_">
			<path class="st20" d="M192.5,42c7.8,1.4,14.3,5.8,18.6,11.7l1.9,2.9c3.4,5.9,4.8,13.1,3.5,20.3c-3,16.2-18.7,27-34.9,24
				c-7.3-1.3-13.4-5.2-17.7-10.5l-2-2.8c-4-6.2-5.7-13.8-4.2-21.6C160.6,49.8,176.2,39,192.5,42z"/>
			<path class="st11" d="M155.1,65.6c-3.2,17.6,8.5,34.6,26.1,37.8c15.8,2.9,31.1-6.2,36.4-20.9l9.9-1.9c1.7-0.3,2.1-2.6,0.6-3.5
				l-8.6-5.3c0.2-15.6-10.8-29.5-26.6-32.4C175.3,36.3,158.3,48,155.1,65.6z M192.4,42c7.8,1.4,14.3,5.8,18.6,11.7l1.9,2.9
				c3.4,5.9,4.9,13.1,3.5,20.3c-3,16.2-18.6,27-34.8,24c-7.3-1.3-13.4-5.2-17.8-10.5l-2-2.8c-4-6.2-5.7-13.8-4.3-21.6
				C160.6,49.8,176.2,39,192.4,42z"/>
		</g>
		<g id="Check_00000013899953902459820080000005882009782268039596_">
			<path class="st2" d="M182.5,90.7c-1.3,0-2.5-0.5-3.4-1.5l-10.6-11.4c-1.8-1.9-1.7-4.9,0.2-6.6c1.9-1.8,4.9-1.7,6.6,0.2l6.9,7.4
				l16.4-20.7c1.6-2,4.6-2.4,6.6-0.8c2,1.6,2.4,4.6,0.8,6.6l-19.7,25c-0.8,1.1-2.1,1.7-3.5,1.8C182.6,90.7,182.5,90.7,182.5,90.7z"
				/>
		</g>
	</g>
</g>
</svg>
